#!OML:ASF F:\VICON\USERDATA\INSTALL\rory3\rory3.ASF
:FULLY-SPECIFIED
:DEGREES
93
root 1.5117498629915829 17.896612871810067 54.725192602447976 -3.2828386614065828 -1.8603461495092817 -2.7954564120636753
lfemur -0.4539442510255878 -1.4096117509177633 -16.944431862181986
ltibia 52.01785311761775
lfoot -6.9511384686352145 -0.07856577177000457
ltoes -6.3680021445925235
rfemur -13.65028078572893 2.5086458185603364 27.7953857672103
rtibia 29.33234853842163
rfoot -17.115700567316335 -10.599316774577147
rtoes -1.6865135140817151
lowerback 8.915562131119382 -1.172469850924059 1.9514139025355113
upperback 0.05068823460532204 -0.8461734277099074 2.144443540183796
thorax -5.174355354974424 -0.49497950436620447 2.007315115678966
lowerneck -16.604697038026934 -2.8584629950766693 -1.5791747977828128
upperneck 21.45993254590103 -3.5185857968424705 0.21332077805571104
head 9.548165019671478 -1.7603265372059265 -0.07511175353123013
lclavicle 4.857652006366333e-16 -7.400985006644958e-16
lhumerus -27.781404978834978 0.8595778391924869 80.80670798404991
lradius 22.397794527657855
lwrist 8.004080808793397
lhand -28.245363882488167 20.05953099196396
lfingers nan
lthumb -1.5665317222605306 49.88141277130285
rclavicle 3.751702709394138e-16 -8.095335604523407e-16
rhumerus -31.954627270013596 -23.4330203164254 -76.69119403648504
rradius 31.667708679075066
rwrist 0.6183867900488185
rhand -17.800881379150475 21.56404408076925
rfingers nan
rthumb 8.619525184372042 -7.868245991253041
94
root 1.4636596107021056 17.88450466731095 53.62451563323925 -3.447405387240092 -1.732896031113607 -3.931936913380583
lfemur -3.98395619095794 -0.7651429201857988 -15.06699302129164
ltibia 55.7327993981141
lfoot -7.038759031764025 0.5168183230528425
ltoes -7.232153350946447
rfemur -10.358831036295813 2.9982578165787874 29.004607238155007
rtibia 28.603782277384433
rfoot -18.782311355898937 -11.765047993322488
rtoes -2.5690386092616664
lowerback 9.086445932203407 -0.77825307182872 2.991175897884105
upperback 0.08639031775925332 -0.1504612128756324 2.191511617809631
thorax -5.3215149826380275 -0.14672628556549455 1.4511078093769005
lowerneck -16.653795737234994 -2.9320364147198057 -1.4173124676905329
upperneck 21.270528088528394 -3.651905215221151 0.18521378651195997
head 9.497566619170174 -1.8147885258653105 -0.15108748174557518
lclavicle 4.958083242978076e-16 -7.348512833734829e-16
lhumerus -28.71758778957976 1.3640715052070362 80.94567874676073
lradius 21.733420412029776
lwrist 8.353378407341928
lhand -28.29594799688551 19.946461626392544
lfingers nan
lthumb -1.6251324084247933 49.748285699826575
rclavicle 3.8183288058849976e-16 -8.09189788467774e-16
rhumerus -31.222700185418155 -23.091488710921404 -76.48476045499504
rradius 31.589597257257186
rwrist 0.7542758647188914
rhand -17.804434354699875 21.615222326557898
rfingers nan
rthumb 8.588572642924076 -7.85521931776764
95
root 1.4202234125098552 17.881098057313242 53.581564196238325 -3.4626481117670025 -1.4508676856100453 -5.006495404964433
lfemur -7.78321482365326 -0.23801002243652292 -13.471363038781815
ltibia 58.05942854830599
lfoot -5.796305369028653 1.4833187333532445
ltoes -8.54744030318785
rfemur -7.02998261022076 3.5755365653245432 30.159324808611274
rtibia 28.174154265440045
rfoot -19.763816457884253 -12.322097273030398
rtoes -3.4862765256031127
lowerback 9.219150132183222 -0.42747111085079165 3.9552867171731343
upperback 0.0947550403087708 0.49295880302597583 2.2154916025982563
thorax -5.4493200418755885 0.1825533320348146 0.8497558827929672
lowerneck -16.668179664466027 -3.0172776501845266 -1.283940898348388
upperneck 21.107488624941105 -3.8029576645824834 0.16904968884195826
head 9.458476510205221 -1.875755450103338 -0.22371003381553378
lclavicle 5.090157640915467e-16 -7.278550757454944e-16
lhumerus -29.68550170190363 2.023894497674986 81.06411477245527
lradius 21.311360203410423
lwrist 8.606682287480687
lhand -28.40824030382042 19.777810267742876
lfingers nan
lthumb -1.7300963280631017 49.61819137444474
rclavicle 3.920540616933582e-16 -8.078854159125931e-16
rhumerus -30.507284287405916 -22.661585674158566 -76.39338042963001
rradius 31.553535713807413
rwrist 1.0425513319734363
rhand -17.799846564603566 21.693002935382825
rfingers nan
rthumb 8.625065329825778 -7.676198464093334
96
root 1.3676140463385922 17.877794155485354 52.86364604880608 -3.530270923840444 -1.2670370002473295 -5.749266117473847
lfemur -11.374332187477773 0.1223525621869892 -12.553577126203951
ltibia 58.77507327215177
lfoot -6.110758429538002 0.7485023946329963
ltoes -8.687363954763066
rfemur -4.021021801319141 4.09466071630815 31.004413630952396
rtibia 28.030854396988396
rfoot -19.97764516262947 -12.347558122152817
rtoes -4.27860455193478
lowerback 9.326580045626462 -0.09126313579888606 4.6220161205602714
upperback 0.09090723390579764 1.0613299639163025 2.1794797854584913
thorax -5.498127807475507 0.47169846337480326 0.27054220517655114
lowerneck -16.643534095663004 -3.1171864166819776 -1.2250267890744282
upperneck 21.009195708422265 -3.9721670760687187 0.18468729879130796
head 9.438517146084973 -1.9429680428024676 -0.2800051456440683
lclavicle 5.226484674978393e-16 -7.207320420568209e-16
lhumerus -30.631429717700513 2.81680083728104 81.17173923046262
lradius 21.124155606735336
lwrist 8.809260705181744
lhand -28.525742684758388 19.668670188865526
lfingers nan
lthumb -1.8684864242121928 49.50582103522083
rclavicle 4.042933963846931e-16 -8.057075866816282e-16
rhumerus -29.8017235271486 -22.171525202006656 -76.40036940257548
rradius 31.572764811914556
rwrist 1.4458386633744325
rhand -17.794580817147285 21.771092140797297
rfingers nan
rthumb 8.61563154790709 -7.612492227033767
97
root 1.3376396541035382 17.882141849439144 52.866628215974 -3.5547361665243558 -0.8881610177580848 -6.068894890181628
lfemur -14.469498106992788 0.18114768250219204 -12.405190282177793
ltibia 57.863021407047995
lfoot -7.732563187956398 0.2041371908748011
ltoes -8.200664182640713
rfemur -1.9290981621773238 4.321921937215557 31.274762322631567
rtibia 28.54688772272675
rfoot -19.143735110054863 -11.813475069429563
rtoes -4.761650607833758
lowerback 9.359657365297453 0.16333298654041756 5.005042406798116
upperback 0.07336946894925664 1.4750260796668049 2.1041206764836295
thorax -5.455914156925512 0.6809651175482627 -0.2460277083874126
lowerneck -16.544578514564968 -3.211586769274634 -1.2404897039970881
upperneck 21.00976532264283 -4.12745772668928 0.23137415694819108
head 9.442424082578796 -2.004115268010931 -0.30962038370215844
lclavicle 5.350598037143716e-16 -7.143745949791836e-16
lhumerus -31.50967042181498 3.6757802700354314 81.27355313592452
lradius 21.14792580997982
lwrist 9.017744710428856
lhand -28.66382972688125 19.557487353948595
lfingers nan
lthumb -2.0157018880155952 49.41875087026255
rclavicle 4.1523575512388513e-16 -8.042249999738881e-16
rhumerus -29.070600906210313 -21.570827328238373 -76.43561787190127
rradius 31.65331588193532
rwrist 1.7823383753033601
rhand -17.79703958316284 21.814887703473723
rfingers nan
rthumb 8.646972262329985 -7.483525380476562
98
root 1.310864215913779 17.889450411024907 52.62934359795101 -3.5784109643923183 -0.3634337462279127 -6.292239934665085
lfemur -16.853664254595376 -0.06157508475311646 -12.703109534907462
ltibia 55.576574206032916
lfoot -8.85059768451283 1.1707617477892343
ltoes -8.5731261314546
rfemur -0.6062797268462283 4.280157564702124 31.30519862801861
rtibia 29.783078656099534
rfoot -17.304683505405208 -10.842312254793743
rtoes -4.763455725114078
lowerback 9.345496330809858 0.3720226417195801 5.341240233366985
upperback 0.03576608742618401 1.8221972283569632 2.0106589007000832
thorax -5.375725918282732 0.8422857883479253 -0.7732030577839802
lowerneck -16.422931095505067 -3.3030273375202954 -1.3388029618377633
upperneck 21.122244055444032 -4.273978945835848 0.32433083040731914
head 9.474156916049997 -2.0612135178566944 -0.3094169490709988
lclavicle 5.467656850785467e-16 -7.082027342462446e-16
lhumerus -32.30212487469353 4.481555764609985 81.35955292724074
lradius 21.354620482241327
lwrist 9.237361957699619
lhand -28.740218570219405 19.529292263339126
lfingers nan
lthumb -2.118808921762432 49.40177794570007
rclavicle 4.238680539381452e-16 -8.036462590944704e-16
rhumerus -28.36242587334912 -20.81663211517366 -76.41090265471328
rradius 31.796872876259137
rwrist 1.8780646754333565
rhand -17.798239850643913 21.822984989570546
rfingers nan
rthumb 8.627412716468578 -7.52869324928734
